Input #0, mov,mp4,m4a,3gp,3g2,mj2, from '/home/hbattu/projects/huberman-gpt/huberman-audio/mp3/tmpg1nv2skb.mp4':
  Metadata:
    major_brand     : dash
    minor_version   : 0
    compatible_brands: iso6mp41
    creation_time   : 2022-06-28T18:51:43.000000Z
  Duration: 02:34:37.02, start: 0.000000, bitrate: 129 kb/s
    Stream #0:0(eng): Audio: aac (LC) (mp4a / 0x6134706D), 44100 Hz, stereo, fltp, 0 kb/s (default)
    Metadata:
      creation_time   : 2022-06-28T18:51:43.000000Z
      handler_name    : ISO Media file produced by Google Inc.
Stream mapping:
  Stream #0:0 -> #0:0 (aac (native) -> mp3 (libmp3lame))
Press [q] to stop, [?] for help
[graph_0_in_0_0 @ 0x564b8c48de40] tb:1/44100 samplefmt:fltp samplerate:44100 chlayout:0x3
Output #0, mp3, to '../huberman-audio/mp3/a9yFKPmPZ90.mp3':
  Metadata:
    major_brand     : dash
    minor_version   : 0
    compatible_brands: iso6mp41
    TSSE            : Lavf58.29.100
    Stream #0:0(eng): Audio: mp3 (libmp3lame), 44100 Hz, stereo, fltp, delay 1105 (default)
    Metadata:
      creation_time   : 2022-06-28T18:51:43.000000Z
      handler_name    : ISO Media file produced by Google Inc.
      encoder         : Lavc58.54.100 libmp3lame
No more output streams to write to, finishing.
size=  144954kB time=02:34:37.02 bitrate= 128.0kbits/s speed=96.9x    
[AVIOContext @ 0x564b8c379900] Statistics: 0 seeks, 192 writeouts
video:0kB audio:144954kB subtitle:0kB other streams:0kB global headers:0kB muxing overhead: 0.000233%
Input file #0 (/home/hbattu/projects/huberman-gpt/huberman-audio/mp3/tmpg1nv2skb.mp4):
  Input stream #0:0 (audio): 399528 packets read (148432352 bytes); 399528 frames decoded (409116672 samples); 
  Total: 399528 packets (148432352 bytes) demuxed
Output file #0 (../huberman-audio/mp3/a9yFKPmPZ90.mp3):
  Output stream #0:0 (audio): 355136 frames encoded (409116672 samples); 355137 packets muxed (148432770 bytes); 
  Total: 355137 packets (148432770 bytes) muxed
[AVIOContext @ 0x564b8c3a26c0] Statistics: 2 seeks, 568 writeouts
[AVIOContext @ 0x564b8c382880] Statistics: 150139008 bytes read, 0 seeks
